<svg width="116" height="20" viewBox="0 0 116 20" fill="none" xmlns="http://www.w3.org/2000/svg">
<g clip-path="url(#clip0_518_195)">
<path d="M9.09981 2.38975C9.50165 1.69989 10.4983 1.69989 10.9001 2.38975L13.2292 6.38869L17.7522 7.36813C18.5325 7.53708 18.8405 8.48492 18.3086 9.08025L15.2251 12.5312L15.6912 17.1354C15.7716 17.9297 14.9654 18.5155 14.2348 18.1936L9.99998 16.3274L5.76511 18.1936C5.03455 18.5155 4.22827 17.9297 4.3087 17.1354L4.77487 12.5312L1.69141 9.08025C1.15948 8.48492 1.46745 7.53708 2.24771 7.36813L6.77068 6.38869L9.09981 2.38975Z" fill="#FFCC02"/>
</g>
<g clip-path="url(#clip1_518_195)">
<path d="M33.0998 2.38975C33.5016 1.69989 34.4983 1.69989 34.9001 2.38975L37.2292 6.38869L41.7522 7.36813C42.5325 7.53708 42.8405 8.48492 42.3086 9.08025L39.2251 12.5312L39.6912 17.1354C39.7716 17.9297 38.9654 18.5155 38.2348 18.1936L34 16.3274L29.7651 18.1936C29.0346 18.5155 28.2283 17.9297 28.3087 17.1354L28.7749 12.5312L25.6914 9.08025C25.1595 8.48492 25.4675 7.53708 26.2477 7.36813L30.7707 6.38869L33.0998 2.38975Z" fill="#FFCC02"/>
</g>
<g clip-path="url(#clip2_518_195)">
<path d="M57.0998 2.38975C57.5016 1.69989 58.4983 1.69989 58.9001 2.38975L61.2292 6.38869L65.7522 7.36813C66.5325 7.53708 66.8405 8.48492 66.3086 9.08025L63.2251 12.5312L63.6912 17.1354C63.7716 17.9297 62.9654 18.5155 62.2348 18.1936L58 16.3274L53.7651 18.1936C53.0346 18.5155 52.2283 17.9297 52.3087 17.1354L52.7749 12.5312L49.6914 9.08025C49.1595 8.48492 49.4675 7.53708 50.2477 7.36813L54.7707 6.38869L57.0998 2.38975Z" fill="#FFCC02"/>
</g>
<g clip-path="url(#clip3_518_195)">
<path d="M81.0998 2.38975C81.5016 1.69989 82.4983 1.69989 82.9001 2.38975L85.2292 6.38869L89.7522 7.36813C90.5325 7.53708 90.8405 8.48492 90.3086 9.08025L87.2251 12.5312L87.6912 17.1354C87.7716 17.9297 86.9654 18.5155 86.2348 18.1936L82 16.3274L77.7651 18.1936C77.0346 18.5155 76.2283 17.9297 76.3087 17.1354L76.7749 12.5312L73.6914 9.08025C73.1595 8.48492 73.4675 7.53708 74.2477 7.36813L78.7707 6.38869L81.0998 2.38975Z" fill="#FFCC02"/>
</g>
<g clip-path="url(#clip4_518_195)">
<path d="M105.1 2.38975C105.502 1.69989 106.498 1.69989 106.9 2.38975L109.229 6.38869L113.752 7.36813C114.532 7.53708 114.84 8.48492 114.309 9.08025L111.225 12.5312L111.691 17.1354C111.772 17.9297 110.965 18.5155 110.235 18.1936L106 16.3274L101.765 18.1936C101.035 18.5155 100.228 17.9297 100.309 17.1354L100.775 12.5312L97.6914 9.08025C97.1595 8.48492 97.4675 7.53708 98.2477 7.36813L102.771 6.38869L105.1 2.38975Z" fill="#E6E6E6"/>
</g>
<defs>
<clipPath id="clip0_518_195">
<rect width="20" height="20" fill="white"/>
</clipPath>
<clipPath id="clip1_518_195">
<rect width="20" height="20" fill="white" transform="translate(24)"/>
</clipPath>
<clipPath id="clip2_518_195">
<rect width="20" height="20" fill="white" transform="translate(48)"/>
</clipPath>
<clipPath id="clip3_518_195">
<rect width="20" height="20" fill="white" transform="translate(72)"/>
</clipPath>
<clipPath id="clip4_518_195">
<rect width="20" height="20" fill="white" transform="translate(96)"/>
</clipPath>
</defs>
</svg>
